<svg width="18" height="22" viewBox="0 0 18 22" fill="none" xmlns="http://www.w3.org/2000/svg">
<path d="M15 3.48C13.4087 1.8887 11.2504 0.99472 9.00001 0.99472C6.74957 0.99472 4.5913 1.8887 3.00001 3.48C1.40871 5.0713 0.514725 7.22957 0.514725 9.48C0.514725 11.7304 1.40871 13.8887 3.00001 15.48L8.27001 20.76C8.36297 20.8537 8.47357 20.9281 8.59543 20.9789C8.71729 21.0297 8.84799 21.0558 8.98001 21.0558C9.11202 21.0558 9.24272 21.0297 9.36458 20.9789C9.48644 20.9281 9.59704 20.8537 9.69001 20.76L15 15.43C16.5847 13.8453 17.4749 11.6961 17.4749 9.455C17.4749 7.21395 16.5847 5.06468 15 3.48V3.48ZM13.57 14L9.00001 18.59L4.43001 14C3.52715 13.0963 2.91248 11.9452 2.6637 10.6923C2.41492 9.43934 2.54319 8.14075 3.03231 6.96068C3.52143 5.78062 4.34942 4.77205 5.41164 4.06248C6.47385 3.35291 7.72259 2.97418 9.00001 2.97418C10.2774 2.97418 11.5262 3.35291 12.5884 4.06248C13.6506 4.77205 14.4786 5.78062 14.9677 6.96068C15.4568 8.14075 15.5851 9.43934 15.3363 10.6923C15.0875 11.9452 14.4729 13.0963 13.57 14V14ZM6.00001 6.41C5.19272 7.21977 4.7394 8.31657 4.7394 9.46C4.7394 10.6034 5.19272 11.7002 6.00001 12.51C6.59977 13.1108 7.36359 13.5211 8.19566 13.6894C9.02772 13.8577 9.89096 13.7766 10.6771 13.4562C11.4632 13.1357 12.1372 12.5903 12.6145 11.8883C13.0918 11.1862 13.3511 10.3589 13.36 9.51C13.3645 8.94321 13.2553 8.38126 13.0389 7.85739C12.8225 7.33352 12.5032 6.85836 12.1 6.46C11.7037 6.05458 11.2311 5.73154 10.7094 5.50947C10.1878 5.2874 9.62735 5.17068 9.06041 5.16603C8.49347 5.16138 7.9312 5.2689 7.40598 5.48239C6.88075 5.69588 6.40293 6.01113 6.00001 6.41V6.41ZM10.69 11.09C10.311 11.4747 9.81022 11.7159 9.27313 11.7723C8.73605 11.8286 8.19607 11.6966 7.74551 11.3989C7.29496 11.1012 6.9618 10.6562 6.80301 10.1401C6.64422 9.62393 6.66966 9.06864 6.87496 8.56916C7.08027 8.06967 7.45271 7.65702 7.92859 7.40174C8.40448 7.14646 8.95426 7.06441 9.48394 7.16962C10.0136 7.27483 10.4903 7.56076 10.8325 7.97853C11.1747 8.3963 11.3612 8.91997 11.36 9.46C11.3455 10.0773 11.0865 10.6635 10.64 11.09H10.69Z" fill="#CFBD40"/>
</svg>
